<svg
   xmlns="http://www.w3.org/2000/svg"
   xmlns:xlink="http://www.w3.org/1999/xlink"
   version="1.1"
   width="696"
   height="300">
  <defs
     id="defs3008">
    <linearGradient
       id="linearGradient4568">
      <stop
         id="stop4570"
         style="stop-color:#ffffff;stop-opacity:1"
         offset="0" />
      <stop
         id="stop4572"
         style="stop-color:#4488ff;stop-opacity:1"
         offset="1" />
    </linearGradient>
    <radialGradient
       cx="348"
       cy="150"
       r="348"
       fx="348"
       fy="150"
       id="radialGradient3143"
       xlink:href="#linearGradient4568"
       gradientUnits="userSpaceOnUse"
       gradientTransform="matrix(1.410447,-0.00406377,0.00262351,0.91056288,-143.22909,14.829762)" />
  </defs>
  <rect
     width="696"
     height="300"
     x="0"
     y="0"
     id="rect4566"
     style="fill:url(#radialGradient3143);fill-opacity:1;fill-rule:nonzero;stroke:none" />
  <path
     d="m 242.03571,35.549803 36.24909,-4.996917 -0.38438,-2.788391 -36.24909,4.996916 0.38438,2.788392 z"
     id="path3040"
     style="fill:#000000;fill-opacity:1;fill-rule:evenodd;stroke:none" />
  <path
     d="m 293.27531,14.643843 2.94861,0.249238 4.95749,35.963102 3.57485,-0.49279 -5.32216,-38.608499 -6.43476,0.887027 0.27597,2.001922 z m 5.08234,-14.39749658 c -0.41395,-3.00288382 -1.23734,-3.69079312 -3.16775,-3.42468792 -1.93043,0.2661088 -2.537,1.1511385 -2.12305,4.15402228 0.41394,3.00288112 1.23734,3.69079042 3.16777,3.42468162 1.93041,-0.2661052 2.53698,-1.1511348 2.12303,-4.15401598 z m 8.07543,13.67654258 2.85991,-0.394238 3.71566,26.954453 c 0.92645,6.720739 3.51988,8.621768 7.66673,8.050126 1.35845,-0.18726 2.69718,-0.517518 3.72035,-1.022839 l -0.44351,-3.217374 c -0.79882,0.547252 -1.84173,0.909585 -2.84268,1.047565 -2.78839,0.384378 -4.00369,-1.560914 -4.75273,-6.994705 l -3.48898,-25.310015 6.50626,-0.896883 -0.47309,-3.4318695 -6.40769,1.6118565 -1.13342,-8.222179 -2.85989,0.3942334 0.3889,8.1062456 0.0887,0.643475 -2.82049,0.680226 0.27596,2.001922 z m 21.4315,-8.7099316 -0.93812,-14.7332712 -4.71882,0.6504862 3.08304,14.4375944 2.5739,-0.3548094 z m 26.16641,7.1027846 c -1.39501,-4.8347535 -4.26694,-8.2273634 -8.98573,-7.5768808 -4.93331,0.6800542 -7.77867,4.3508002 -7.01977,9.8560838 0.74904,5.433791 3.64567,7.948727 8.591,11.05552 5.43345,3.476639 6.984,5.739997 7.48665,9.386356 0.50264,3.646357 -1.31701,6.301439 -4.82038,6.784376 -2.4309,0.335097 -4.97257,-1.718778 -6.05455,-5.868122 l -3.31357,1.331046 c 1.39501,4.83475 5.0016,8.271801 9.64892,7.63117 5.3623,-0.73919 8.92262,-4.508492 8.10459,-10.442762 -0.79833,-5.791274 -3.08357,-8.099067 -8.53671,-11.718704 -4.89356,-3.259642 -7.10728,-5.577291 -7.53108,-8.651673 -0.53222,-3.860849 0.72283,-5.8552538 3.72571,-6.2691992 2.50239,-0.3449534 4.30936,1.6644908 5.39135,5.8138322 l 3.31357,-1.331043 z"
     id="path3050"
     style="fill:#000000;fill-opacity:1;fill-rule:evenodd;stroke:none" />
  <path
     d="m 372.35855,17.584873 36.2491,-4.996917 -0.38438,-2.7883911 -36.2491,4.9969171 0.38438,2.788391 z"
     id="path3060"
     style="fill:#000000;fill-opacity:1;fill-rule:evenodd;stroke:none" />
  <path
     d="m 616.40625,21.59375 -3.125,0.4375 -22.96875,61.78125 4.53125,-4.15625 21.5625,-58.0625 z m -175.1875,24.125 -3.125,0.4375 c -1.35054,3.660038 -26.88778,72.87197 -30.5625,82.90625 -1.33624,3.44398 -3.641,10.40156 -2.5625,11.21875 0.49696,0.42472 1.28827,0.0191 2.25,-0.8125 0.46643,-2.55877 1.73798,-6.37009 2.625,-8.65625 3.77174,-10.29926 31.375,-85.09375 31.375,-85.09375 z M 645,56.5 639.71875,57.25 610.25,82.15625 c 0.59243,-0.08166 1.31382,-0.168375 1.90625,-0.25 0.9915,-0.136679 1.97286,-0.150274 2.9375,-0.09375 L 645,56.5 z m 30,0.71875 c -0.23565,-0.02623 -0.46338,0.131716 -0.71875,0.46875 -0.0294,0.04099 -0.12352,0.173628 -0.15625,0.21875 0.70283,2.530869 0.97928,6.226379 0.40625,7.0625 -2.84384,3.893275 -36.42554,48.60999 -44.78125,58.9375 -8.8501,11.12005 -15.07976,14.86161 -19.9375,15.53125 -2.08934,0.28801 -3.90563,0.14329 -5.375,-0.5 1.58421,2.03852 4.29753,2.74856 7.6875,2.28125 4.85771,-0.66962 11.11865,-4.44245 19.96875,-15.5625 8.35569,-10.3275 41.90616,-55.012987 44.75,-58.90625 0.87951,-1.283297 -0.19421,-9.347632 -1.84375,-9.53125 z m -379.59375,10 c 1.15752,1.28522 1.95204,2.994539 2.28125,5.03125 l 0.125,-0.03125 c 0.0163,0.118463 0.0149,0.1315 0.0312,0.25 0.0652,0.473913 0.0121,0.9701 0.0937,1.5625 1.47864,19.033227 -15.70378,37.47173 -29.40625,40.96875 0.49709,0.33729 0.97988,0.7925 1.40625,1.3125 0.31546,0.097 0.62926,0.22621 0.9375,0.4375 13.70005,-3.50644 30.85313,-21.942325 29.375,-40.96875 -0.0816,-0.5924 -0.0285,-1.088575 -0.0937,-1.5625 C 300.1398,74.10025 300.1412,74.118463 300.125,74 L 300,74 c -0.51743,-3.201193 -2.16331,-5.605174 -4.59375,-6.78125 z M 270.875,116.75 c -0.16503,0.0422 -0.33601,0.0871 -0.5,0.125 0.99501,1.42179 1.56563,3.05893 1.15625,3.65625 -0.90301,1.33181 -21.97711,35.86799 -40.75,35.4375 -0.89082,2.29599 -1.88855,4.61538 -3,7.0625 -10.25224,21.09267 -22.96709,32.26592 -36,34.0625 -4.26372,0.58775 -8.16644,-0.1873 -11.375,-2.15625 3.55725,3.2321 8.33506,4.64408 13.6875,3.90625 13.03293,-1.79658 25.74778,-12.96983 36,-34.0625 1.11146,-2.44714 2.10917,-4.76651 3,-7.0625 18.77289,0.43049 39.847,-34.1057 40.75,-35.4375 0.62254,-0.90835 -1.01884,-4.19464 -2.96875,-5.53125 z M 268.53125,115 c -0.0717,-0.0487 -0.14632,-0.0818 -0.21875,-0.125 l 0.0312,0.15625 c 0.0615,-0.0151 0.12582,-0.0155 0.1875,-0.0312 z M 586.3125,67.28125 c -0.21182,0.0063 -0.43296,0.172763 -0.625,0.53125 -3.96278,7.557979 -8.08718,14.894113 -12.3125,21.84375 L 568.625,102.5 c 6.68465,-9.884505 13.19161,-21.088069 19.3125,-32.75 -0.49441,-1.401609 -1.07025,-2.485318 -1.625,-2.46875 z M 568.625,102.5 c -2.05527,3.03911 -4.13124,5.95938 -6.21875,8.71875 l -7.34375,19.75 c 1.79484,-1.94803 3.53657,-4.008 5.25,-6.125 L 568.625,102.5 z m -13.5625,28.46875 c -10.12728,10.99166 -21.4986,18.98463 -33.625,20.65625 -8.52691,1.17543 -15.49965,-0.16728 -20.625,-3.46875 5.25424,4.54749 13.03378,6.61522 22.9375,5.25 10.26073,-1.41443 19.99009,-7.38775 28.875,-15.84375 l 2.4375,-6.59375 z M 548.1875,74.375 c 6.30231,5.835199 7.76193,16.970733 -0.4375,31.75 -3.58457,6.35397 -10.75038,2.69136 -14.4375,0.1875 0,0 11.83299,10.33369 16.78125,1.5625 9.12573,-16.448924 6.25729,-28.358573 -1.90625,-33.5 z m -30.21875,5.6875 c -1.72355,1.465719 -3.44249,3.137518 -5.15625,5 -0.0329,0.04551 -0.0603,0.07897 -0.0937,0.125 -1.59706,2.200351 -3.76329,4.988373 -6.25,7.84375 -2.10596,3.050031 -4.15184,6.421791 -6.0625,10.15625 8.23776,-7.000744 15.85869,-17.63118 17.3125,-20.1875 0.71101,-1.212602 1.5987,-1.45329 2.5,-1.1875 -0.67081,-0.816504 -1.45119,-1.487068 -2.25,-1.75 z m -17.5625,23.125 c -1.61393,1.37158 -3.25268,2.6224 -4.875,3.625 -1.75165,4.0483 -3.00231,7.95975 -3.78125,11.65625 1.10246,-0.60169 2.19637,-1.29138 3.28125,-2.03125 0.8143,-2.83483 1.8647,-5.76557 3.21875,-8.78125 0.69794,-1.54363 1.41937,-3.02848 2.15625,-4.46875 z M 482.3125,80.3125 c 2.83196,3.21467 4.1186,9.44377 4,15.0625 -0.0166,3.3828 -0.19699,7.52559 -1.21875,12.375 0.87319,0.0383 1.78972,-0.0889 2.71875,-0.3125 0.67132,-3.96494 0.7983,-7.38991 0.8125,-10.28125 0.14714,-6.971078 -1.85964,-14.928162 -6.3125,-16.84375 z M 467.59375,81 c 0.4752,0.87099 0.82484,1.954721 1.09375,3.15625 0.37292,-0.537255 0.78369,-1.023568 1.1875,-1.5 C 469.31421,81.668963 468.58368,81.016175 467.59375,81 z m 69.09375,2.15625 c -0.17177,-0.0032 -0.33872,0.03596 -0.53125,0.0625 -6.16104,0.8493 -15.88496,12.665275 -21.6875,26.625 -5.46193,12.94901 -4.61041,22.38316 1.71875,25.75 -4.11183,-4.31097 -4.1047,-12.8298 0.59375,-23.96875 5.80255,-13.959738 15.52649,-25.806962 21.6875,-26.65625 0.11789,-0.01625 0.23368,-0.02627 0.34375,-0.03125 -0.3168,-1.087383 -0.99133,-1.759813 -2.125,-1.78125 z m 87.21875,2.40625 c 4.88344,4.5748 7.07363,13.034131 2.9375,24.125 0.70665,0.60392 2.0087,-0.41068 3.53125,-2.03125 2.77776,-10.764795 -0.70314,-18.593941 -6.46875,-22.09375 z M 452.1875,88 c -6.31933,4.972074 -12.95313,12.90054 -19.03125,24.875 8.61685,-10.78754 17.13468,-21.577653 19.1875,-24.40625 -0.0457,-0.160639 -0.1073,-0.318754 -0.15625,-0.46875 z m -44.28125,3.875 c -0.21182,0.0063 -0.40171,0.172764 -0.59375,0.53125 -1.18684,2.263589 -2.4117,4.494288 -3.625,6.71875 -2.10488,5.71841 -3.93011,10.71659 -5.96875,16.25 4.05758,-6.70967 7.99883,-13.79546 11.8125,-21.0625 -0.49197,-1.384273 -1.07483,-2.453929 -1.625,-2.4375 z m -10.1875,23.5 c -2.32291,3.84119 -4.6809,7.54792 -7.0625,11.09375 -4.00119,10.84781 -6.76441,18.36063 -8.3125,22.5 2.03616,-2.53866 3.99528,-5.18935 5.90625,-7.90625 2.63031,-7.10788 5.56429,-15.08977 9.46875,-25.6875 z m -15.375,33.59375 c -11.46823,14.29842 -24.87399,25.25966 -39.3125,27.25 -8.61257,1.18724 -15.61053,-0.18839 -20.75,-3.5625 5.25519,4.62045 13.11461,6.71937 23.09375,5.34375 12.40643,-1.71022 24.01076,-10.08399 34.3125,-21.46875 0.3303,-1.21464 0.75118,-2.48524 1.28125,-3.875 0.16254,-0.42755 1.09101,-2.92816 1.375,-3.6875 z M 276.6875,94.875 c 0.80668,0.893763 1.80452,1.569954 2.9375,2 0.22312,-0.403423 0.46117,-0.804605 0.65625,-1.21875 -1.32548,7.75e-4 -2.54073,-0.273035 -3.59375,-0.78125 z m 187.46875,0.0625 c -5.55256,4.387387 -12.24594,13.65684 -16.59375,24.15625 -5.33398,12.68781 -5.66477,22.64323 -0.9375,23.5625 -2.02543,-3.53212 -0.94742,-11.8282 3.25,-21.8125 3.61801,-8.73702 8.8614,-16.60587 13.71875,-21.53125 0.069,-1.482087 0.26257,-2.948511 0.5625,-4.375 z M 602.375,98.625 c -0.305,0.01436 -0.60057,0.0473 -0.9375,0.09375 -6.8719,0.947288 -22.42353,16.0038 -33.90625,46.5625 l -15.59375,2.15625 -0.8125,2.1875 18.71875,-2.59375 c 11.48272,-30.5587 27.03436,-45.61521 33.90625,-46.5625 1.24016,-0.17096 2.23398,-0.11384 3.0625,0.125 -0.77578,-1.323079 -2.19114,-2.074481 -4.4375,-1.96875 z m -232.65625,0.25 c 6.37106,5.81461 7.89088,17.00101 -0.34375,31.84375 -3.58061,6.34692 -10.74673,2.69114 -14.4375,0.1875 0,0 11.80174,10.3337 16.75,1.5625 9.16649,-16.52241 6.27891,-28.49024 -1.96875,-33.59375 z m -11.40625,8.875 c -0.17177,-0.003 -0.36997,0.005 -0.5625,0.0312 -6.16101,0.84929 -15.88495,12.69653 -21.6875,26.65625 -5.46194,12.94901 -4.61042,22.38316 1.71875,25.75 -4.11183,-4.31097 -4.07344,-12.82979 0.625,-23.96875 5.80256,-13.95972 15.49524,-25.80696 21.65625,-26.65625 0.12855,-0.0177 0.25574,-0.0269 0.375,-0.0312 -0.3168,-1.08738 -0.99133,-1.75981 -2.125,-1.78125 z m 74.8125,5.15625 c -2.50361,3.13421 -4.68215,5.83195 -7.03125,8.75 -1.98038,5.13835 -3.19015,9.89172 -3.75,14.1875 1.16865,-1.53503 2.35199,-3.09343 3.5625,-4.6875 0.003,-0.01 -0.003,-0.0213 0,-0.0312 0.81948,-3.18646 1.96704,-6.56766 3.46875,-10.125 1.21807,-2.88545 2.47325,-5.57613 3.75,-8.09375 z m -10.78125,22.9375 c -6.10874,8.0239 -11.6704,15.27855 -14.34375,18.625 -8.9686,11.13639 -14.96129,14.87654 -19.9375,15.5625 -2.08934,0.28801 -3.92674,0.11065 -5.40625,-0.53125 1.59957,2.03791 4.32767,2.74871 7.71875,2.28125 4.9762,-0.68597 11.00015,-4.42611 19.96875,-15.5625 2.28215,-2.85674 6.6342,-8.49154 11.625,-15.03125 0.004,-1.70125 0.13056,-3.46815 0.375,-5.34375 z m -190.3125,-21 c 2.81418,3.22313 4.08699,9.46064 3.96875,15.0625 -0.0166,3.3828 -0.16574,7.49434 -1.1875,12.34375 0.87319,0.0383 1.75847,-0.0889 2.6875,-0.3125 0.67133,-3.96493 0.7983,-7.38991 0.8125,-10.28125 0.1471,-6.96894 -1.83132,-14.8938 -6.28125,-16.8125 z M 217.3125,115.5 c 0.47301,0.86989 0.82571,1.98957 1.09375,3.1875 0.37427,-0.5392 0.75087,-1.05333 1.15625,-1.53125 -0.55449,-0.97346 -1.27771,-1.62745 -2.25,-1.65625 z m 274.40625,2.96875 c -3.52579,1.92047 -7.11326,3.08053 -10.625,3 -0.89083,2.29599 -1.91981,4.61538 -3.03125,7.0625 -10.25224,21.09266 -22.93583,32.23468 -35.96875,34.03125 -4.30951,0.59407 -8.2408,-0.20251 -11.46875,-2.21875 3.5666,3.29194 8.38266,4.74419 13.78125,4 13.03294,-1.79659 25.74774,-12.96982 36,-34.0625 1.11145,-2.44712 2.10919,-4.76651 3,-7.0625 2.57207,0.059 5.18053,-0.54651 7.78125,-1.625 0.14581,-1.02293 0.30857,-2.06756 0.53125,-3.125 z M 131.5,127.3125 l -3.15625,0.4375 -4.71875,12.6875 -27.71875,3.9375 -11.9375,31.59375 c 1.010217,-0.12983 2.076635,-0.26191 3.15625,-0.375 L 98.25,146.125 125.96875,142.1875 131.5,127.3125 z m 82.34375,2.125 c -5.55256,4.3874 -12.24592,13.65684 -16.59375,24.15625 -5.33031,12.67911 -5.65459,22.63146 -0.9375,23.5625 -2.02542,-3.53213 -0.94742,-11.8282 3.25,-21.8125 3.61801,-8.73701 8.8614,-16.60587 13.71875,-21.53125 0.069,-1.48209 0.26258,-2.94851 0.5625,-4.375 z m -100.125,51.125 c 2.64215,2.43002 4.52902,5.8482 5.1875,10.625 2.25389,16.35039 -10.27045,41.97087 -41.3125,46.25 -12.170449,1.67769 -19.979242,0.29894 -24.8125,-2.71875 4.485777,4.18446 12.820036,6.47624 27.15625,4.5 31.04205,-4.27913 43.56639,-29.93086 41.3125,-46.28125 -0.83827,-6.08105 -3.67768,-9.94361 -7.53125,-12.375 z m -30.875,4.875 c -0.989676,0.0171 -1.932165,0.0597 -2.84375,0.125 l -15.25,2.09375 -0.8125,2.1875 18.375,-2.53125 c 4.557924,-0.32647 10.408223,-0.21057 14.4375,2 -3.148854,-3.25262 -8.875396,-3.96197 -13.90625,-3.875 z m -11.65625,18.40625 -3.75,0.5 c -3.713034,6.8885 -7.072201,20.96812 1.125,25.15625 -5.823289,-6.29465 -1.044505,-20.81331 2.625,-25.65625 z"
     id="path3088"
     style="fill:#000000;fill-opacity:1;fill-rule:evenodd;stroke:none" />
  <path
     d="m 188.58341,264.37496 c -2.31176,-8.01187 -7.07092,-13.63391 -14.89068,-12.55596 -8.17519,1.12695 -12.89036,7.20988 -11.63275,16.33294 1.24127,9.00457 6.04141,13.17218 14.23653,18.32057 9.004,5.76128 11.57349,9.51199 12.40645,15.55453 0.83296,6.04255 -2.1825,10.44239 -7.98807,11.24269 -4.02836,0.5553 -8.24025,-2.84826 -10.03323,-9.72432 l -5.49111,2.20573 c 2.31176,8.01187 8.2884,13.70754 15.98968,12.64592 8.88608,-1.22494 14.78606,-7.47119 13.43045,-17.30514 -1.32293,-9.59696 -5.10989,-13.4213 -14.14656,-19.41954 -8.10931,-5.40171 -11.77779,-9.24239 -12.48009,-14.33706 -0.88196,-6.398 1.19783,-9.70301 6.17404,-10.38898 4.14684,-0.57164 7.14125,2.75831 8.93424,9.63437 l 5.4911,-2.20575 z m 13.03546,17.52028 c 3.25018,23.57773 10.95476,32.17426 21.49958,30.72066 10.54482,-1.45359 15.75468,-11.83037 12.5045,-35.40811 -3.26651,-23.69622 -11.10591,-32.39489 -21.65073,-30.94129 -10.54481,1.4536 -15.61986,11.93251 -12.35335,35.62874 z m 6.2795,-0.86563 c -2.6622,-19.31241 -0.97412,-28.96225 6.4902,-29.9912 8.05671,-1.11061 12.29268,7.7226 14.95488,27.03501 2.64588,19.19394 0.94145,28.72529 -7.11526,29.8359 -7.46431,1.02895 -11.68395,-7.68577 -14.32982,-26.87971 z m 78.93004,-44.80629 c -5.09469,0.7023 -10.31645,6.6136 -12.20496,19.18866 l -0.47393,0.0653 c -1.76391,-12.79597 -4.85632,-16.83678 -10.89886,-16.00382 -5.09468,0.7023 -10.31644,6.6136 -12.20495,19.18867 l -0.47393,0.0653 -3.03426,-15.88063 -4.50228,0.62064 8.81958,63.97979 5.92405,-0.81662 -5.76539,-41.82383 c 2.23178,-13.58824 7.55568,-19.63437 10.51771,-20.04268 3.67291,-0.50631 5.1924,3.50988 6.66233,14.17318 l 6.23904,45.25978 5.92405,-0.81663 -5.76539,-41.82383 c 2.23178,-13.58824 7.55568,-19.63437 10.51771,-20.04268 3.67291,-0.50631 5.1924,3.50989 6.66233,14.17318 l 6.23904,45.25978 5.92405,-0.81663 -6.61468,-47.98484 c -1.78025,-12.91444 -4.85632,-16.83678 -11.49126,-15.92215 z m 44.97182,56.58156 c -6.75343,0.93096 -10.49914,-7.8491 -13.14501,-27.04304 l -0.0653,-0.47392 23.45926,-3.23384 c -2.08168,-23.85956 -8.55248,-32.26396 -18.50489,-30.89202 -9.83392,1.3556 -14.43503,11.76918 -11.16852,35.46541 3.25018,23.57773 10.48083,32.23959 20.19628,30.90032 7.70127,-1.06161 11.91399,-8.16188 11.97187,-16.5004 l -5.88307,-0.63781 c 0.13424,7.10472 -2.9507,11.87632 -6.86059,12.4153 z m -7.83963,-56.87091 c 5.33166,-0.73497 9.06132,4.42531 11.15575,22.24649 l -16.98377,3.78998 c -1.94744,-16.75484 -0.33299,-25.18718 5.82802,-26.03647 z m 40.97536,-9.27042 7.73613,22.83863 -3.17274,29.53389 -0.0537,7.49284 -0.47392,0.0653 -1.60504,-7.26418 -15.46367,-50.86992 -6.8719,0.94728 21.97098,62.16689 4.73924,-0.65331 2.98061,-28.30009 0.25385,-6.91675 0.47392,-0.0653 1.64184,6.65543 9.10448,26.63417 4.73925,-0.6533 5.27966,-65.92337 -6.87189,0.94729 -0.88674,53.12381 0.30174,7.44384 -0.47392,0.0653 -1.842,-7.23151 -15.8191,-50.82093 -5.68709,0.78396 z m 55.49908,57.54506 -5.73273,-41.58687 c 2.55457,-13.8742 8.47087,-20.00199 11.66986,-20.44297 3.67293,-0.50631 5.19242,3.50989 6.66235,14.17318 l 6.23903,45.25978 5.92405,-0.81663 -6.61468,-47.98484 c -1.78025,-12.91444 -4.85632,-16.83678 -11.49126,-15.92215 -5.45015,0.7513 -10.36544,6.25817 -13.43463,18.15085 l -5.79806,-42.06081 -5.92405,0.81663 12.57607,91.23045 5.92405,-0.81662 z m 51.61465,-10.73704 c -6.75343,0.93096 -10.49914,-7.84909 -13.14501,-27.04303 l -0.0653,-0.47393 23.45927,-3.23384 c -2.08171,-23.85955 -8.55248,-32.26396 -18.5049,-30.89202 -9.83391,1.3556 -14.43503,11.76918 -11.16852,35.46541 3.25018,23.57773 10.48083,32.23959 20.19628,30.90032 7.70127,-1.06161 11.91399,-8.16188 11.97188,-16.5004 l -5.88311,-0.6378 c 0.13427,7.10471 -2.95067,11.87632 -6.86056,12.41529 z m -7.83962,-56.87091 c 5.33166,-0.73497 9.06131,4.42531 11.15574,22.24649 l -16.98377,3.78998 c -1.94744,-16.75483 -0.33298,-25.18718 5.82803,-26.03647 z m 40.5534,55.98332 -5.71639,-41.46837 c 2.5994,-12.67306 7.79651,-17.01147 13.4836,-17.79543 l -1.11061,-8.0567 c -5.5686,0.76763 -10.56975,6.5278 -13.50408,18.52261 l -0.47392,0.0653 -2.91994,-15.05125 -4.50229,0.62064 8.81958,63.9798 5.92405,-0.81663 z m 37.76205,-8.82746 c -6.75342,0.93096 -10.49913,-7.8491 -13.14501,-27.04304 l -0.0653,-0.47392 23.45927,-3.23385 c -2.08168,-23.85955 -8.55248,-32.26395 -18.50489,-30.89202 -9.83392,1.3556 -14.43504,11.76919 -11.16852,35.46541 3.25017,23.57774 10.48083,32.2396 20.19628,30.90033 7.70127,-1.06162 11.91398,-8.16188 11.97187,-16.5004 l -5.8831,-0.6378 c 0.13427,7.10471 -2.95067,11.87631 -6.86057,12.41529 z M 534.6859,206.8856 c 5.33166,-0.73496 9.06131,4.42532 11.15574,22.2465 l -16.98377,3.78998 c -1.94743,-16.75484 -0.33298,-25.18718 5.82803,-26.03648 z"
     id="path3150"
     style="fill:#000000;fill-opacity:1;fill-rule:evenodd;stroke:none" />
  <path
     d="m 121.30512,138.67025 5.5534,-14.89123 -27.708248,3.94028 -0.01633,-0.11847 -18.720014,2.58055 -21.11433,56.15364 18.364573,-2.53154 c 7.292678,-0.52236 17.878188,0.0709 19.054131,8.60152 1.878244,13.62533 -8.169694,34.44837 -21.676541,36.31028 -20.615712,2.84187 -13.509036,-21.80136 -8.503757,-28.40723 l -17.416723,2.40088 c -6.316878,8.47693 -15.548468,38.72531 26.156883,32.97625 31.042056,-4.27913 43.566196,-29.91062 41.312306,-46.26101 -2.46622,-17.89065 -22.007296,-16.88718 -34.938074,-15.22541 l 11.944477,-31.58821 27.708247,-3.94031 z m 141.44695,-24.68987 c -2.2351,3.93008 -18.97528,27.0037 -30.27167,26.50844 1.02177,-4.84941 1.17734,-8.97577 1.19396,-12.35857 0.17634,-8.35485 -2.73585,-18.09494 -9.25231,-17.19665 -3.08051,0.42464 -6.03451,2.64285 -8.35126,5.98052 -0.62894,-2.81088 -1.68282,-5.20099 -3.81547,-4.907 -10.54482,1.45359 -25.81727,11.52724 -37.83095,39.98594 -12.01368,28.4587 -1.0863,45.54518 15.02713,43.32396 13.03292,-1.79659 25.73975,-12.96535 35.99199,-34.05802 1.11145,-2.44714 2.12076,-4.75945 3.01158,-7.05544 18.77289,0.43048 39.84871,-34.10673 40.75172,-35.43854 1.00515,-1.46662 -3.91319,-9.11917 -6.45472,-4.78464 z m -67.35048,61.44068 c -6.16101,0.84929 -6.29499,-9.75671 -0.47611,-23.59795 4.34782,-10.49942 11.04063,-19.75256 16.59319,-24.13995 -1.38552,6.58982 -0.47505,14.07046 4.28412,19.6925 -4.57676,12.34196 -12.34448,26.93478 -20.4012,28.0454 z M 295.51164,70.709344 c -0.0163,-0.118494 -0.0163,-0.118494 -0.0327,-0.236961 l -0.11855,0.01634 c -0.82084,-5.078344 -4.50975,-8.191809 -9.60442,-7.489511 -7.10888,0.979954 -14.14882,8.590701 -15.86542,17.157876 -1.57763,7.823626 1.89457,13.743811 8.05144,13.740214 -2.61517,5.551999 -7.76329,10.245838 -15.10912,11.258458 l 1.17594,8.53064 c 13.98077,-1.92724 33.15564,-21.35231 31.59657,-41.420462 -0.0817,-0.592399 -0.0284,-1.082668 -0.0938,-1.55659 z m 109.46785,19.922355 c -18.35493,35.007271 -40.02286,66.124861 -60.40163,68.934061 -13.98075,1.92724 -18.29007,-9.18978 -10.82851,-26.87944 5.80252,-13.95972 15.51881,-25.80284 21.67985,-26.65213 6.16101,-0.8493 1.55545,13.91129 -5.14537,21.35455 0,0 11.8063,10.32503 16.75453,1.55384 13.34522,-24.05442 1.10209,-38.424139 -15.95918,-36.072253 -10.54482,1.453599 -25.5028,12.932683 -35.8655,35.851563 -12.65506,28.18492 -1.27455,49.43458 25.5022,45.74342 29.14635,-4.01781 53.97316,-44.6258 67.4864,-75.343665 0.73552,-1.670914 -1.68647,-11.357844 -3.22279,-8.489946 z m 42.88556,-5.91175 c -3.74682,5.225062 -34.94282,44.296381 -38.92247,48.708421 -2.7212,3.03123 -5.20541,6.02979 -6.30025,5.09412 -1.07853,-0.81718 1.22219,-7.77463 2.55841,-11.2186 3.77176,-10.29927 31.37127,-85.094583 31.37127,-85.094583 l -18.83849,2.596874 c 0,0 -35.46996,96.525519 -39.10273,106.081229 -5.05484,13.25299 -0.71644,18.45011 7.1033,17.37216 4.9762,-0.68596 10.98222,-4.41147 19.95079,-15.54785 8.23722,-10.31117 41.91357,-55.036639 44.75741,-58.929906 1.00515,-1.466618 -0.65275,-11.741806 -2.57724,-9.061865 z m 65.19114,-5.243851 c -2.23511,3.930082 -18.97528,27.003702 -30.27169,26.508452 1.02179,-4.84942 1.17736,-8.975775 1.19397,-12.358576 0.17633,-8.35485 -2.73571,-18.094965 -9.2523,-17.196656 -3.08052,0.424648 -6.03452,2.642849 -8.35127,5.98052 -0.62907,-2.810861 -1.68281,-5.200985 -3.81548,-4.906997 -10.5448,1.453595 -25.81726,11.52724 -37.83094,39.985939 -12.01367,28.4587 -1.08631,45.54519 15.02714,43.32396 13.03291,-1.79658 25.73974,-12.96535 35.99197,-34.05802 1.11145,-2.44713 2.12076,-4.75945 3.01158,-7.05543 18.77291,0.43048 39.84873,-34.106742 40.75174,-35.438546 1.00515,-1.466618 -3.9132,-9.11917 -6.45472,-4.784646 z M 445.7057,140.91678 c -6.16101,0.84929 -6.29498,-9.75671 -0.47612,-23.59795 4.34782,-10.49941 11.04064,-19.752554 16.59321,-24.139951 -1.38552,6.589818 -0.47506,14.070461 4.28412,19.692501 -4.57678,12.34196 -12.34449,26.93479 -20.40121,28.0454 z M 583.37143,66.040472 c -18.3549,35.007258 -40.02286,66.124858 -60.4016,68.934058 -13.98078,1.92724 -18.2901,-9.18978 -10.82854,-26.87944 5.80253,-13.959721 15.51884,-25.80284 21.67985,-26.652131 6.16101,-0.849292 1.55545,13.911293 -5.14536,21.354551 0,0 11.80629,10.32503 16.75455,1.55384 13.3452,-24.054418 1.10206,-38.424136 -15.9592,-36.07225 -10.54483,1.453599 -25.50281,12.932683 -35.86548,35.85156 -12.65509,28.18493 -1.27455,49.43458 25.50217,45.74342 29.14635,-4.01781 53.97316,-44.6258 67.4864,-75.343662 0.73552,-1.670914 -1.68647,-11.357844 -3.22279,-8.489946 z m 86.24965,-11.889465 c -3.74682,5.225062 -34.82433,44.280051 -38.92246,48.708423 -2.60271,3.01489 -5.08693,6.01346 -6.18179,5.07779 6.78751,-18.200406 -3.44173,-29.346496 -14.69744,-27.794903 -0.59239,0.08166 -1.30329,0.179659 -1.89568,0.26132 l 32.44114,-27.411173 -24.62774,3.515638 -27.74676,25.55673 23.77464,-64.005788 -18.72002,2.580544 -46.5726,125.462292 18.72,-2.58054 c 11.48275,-30.5587 27.03339,-45.620728 33.90529,-46.568015 10.78179,-1.486263 4.92195,13.809415 1.28916,23.365135 -4.93635,13.23666 -0.71644,18.45011 7.10332,17.37216 4.85772,-0.66964 11.10067,-4.4278 19.9508,-15.54786 8.35568,-10.3275 41.91357,-55.036635 44.75738,-58.929899 1.00515,-1.466617 -0.53425,-11.75814 -2.57724,-9.061865 z"
     id="path3140"
     style="fill:#000000;fill-opacity:1;fill-rule:nonzero;stroke:none" />
</svg>
