<svg xmlns="http://www.w3.org/2000/svg" width="696" height="300"><g><circle cx="50" cy="9" r="9" transform="matrix(2.393 0 0 2.393 381.666 3.666)" stroke="#fff" stroke-width="2.09"/><path d="M515.666 53.916h-28.714c-13.161 0-23.929 10.768-23.929 23.929v55.036c0 9.76 5.929 18.193 14.357 21.904v69.024c0 10.529 8.614 19.143 19.143 19.143h9.571c10.529 0 19.143-8.614 19.143-19.143v-69.024c8.428-3.714 14.357-12.144 14.357-21.904v-55.036c0-13.161-10.768-23.929-23.929-23.929z" stroke="#fff" stroke-width="5"/><circle cx="50" cy="9" r="9" transform="matrix(2.393 0 0 2.393 381.666 3.666)"/><path d="M515.666 53.916h-28.714c-13.161 0-23.929 10.768-23.929 23.929v55.036c0 9.76 5.929 18.193 14.357 21.904v69.024c0 10.529 8.614 19.143 19.143 19.143h9.571c10.529 0 19.143-8.614 19.143-19.143v-69.024c8.428-3.714 14.357-12.144 14.357-21.904v-55.036c0-13.161-10.768-23.929-23.929-23.929z"/></g><g><circle cx="50" cy="9" r="9" transform="matrix(2.812 0 0 2.812 7.177 3.945)" stroke="#fff" stroke-width="2.09"/><path d="M164.627 62.988h-33.739c-15.464 0-28.117 12.652-28.117 28.117v64.667c0 11.468 6.967 21.377 16.869 25.737v81.103c0 12.372 10.121 22.493 22.493 22.493h11.246c12.372 0 22.493-10.121 22.493-22.493v-81.103c9.903-4.364 16.869-14.269 16.869-25.737v-64.667c0-15.464-12.652-28.117-28.117-28.117z" stroke="#fff" stroke-width="5.875"/><circle cx="50" cy="9" r="9" transform="matrix(2.812 0 0 2.812 7.177 3.945)"/><path d="M164.627 62.988h-33.739c-15.464 0-28.117 12.652-28.117 28.117v64.667c0 11.468 6.967 21.377 16.869 25.737v81.103c0 12.372 10.121 22.493 22.493 22.493h11.246c12.372 0 22.493-10.121 22.493-22.493v-81.103c9.903-4.364 16.869-14.269 16.869-25.737v-64.667c0-15.464-12.652-28.117-28.117-28.117z"/></g><g><circle cx="50" cy="9" r="9" transform="matrix(2.393 0 0 2.393 282.672 24.88)" stroke="#fff" stroke-width="2.09"/><path d="M416.672 75.13h-28.714c-13.161 0-23.929 10.768-23.929 23.929v55.036c0 9.76 5.929 18.193 14.357 21.904v69.024c0 10.529 8.614 19.143 19.143 19.143h9.571c10.529 0 19.143-8.614 19.143-19.143v-69.024c8.428-3.714 14.357-12.144 14.357-21.904v-55.036c0-13.161-10.768-23.929-23.929-23.929z" stroke="#fff" stroke-width="5"/><circle cx="50" cy="9" r="9" transform="matrix(2.393 0 0 2.393 282.672 24.88)"/><path d="M416.672 75.13h-28.714c-13.161 0-23.929 10.768-23.929 23.929v55.036c0 9.76 5.929 18.193 14.357 21.904v69.024c0 10.529 8.614 19.143 19.143 19.143h9.571c10.529 0 19.143-8.614 19.143-19.143v-69.024c8.428-3.714 14.357-12.144 14.357-21.904v-55.036c0-13.161-10.768-23.929-23.929-23.929z"/></g><g><circle cx="50" cy="9" r="9" transform="matrix(2.393 0 0 2.393 329.139 45.083)" stroke="#fff" stroke-width="2.09"/><path d="M463.139 95.333h-28.714c-13.161 0-23.929 10.768-23.929 23.929v55.036c0 9.76 5.929 18.193 14.357 21.904v69.024c0 10.529 8.614 19.143 19.143 19.143h9.571c10.529 0 19.143-8.614 19.143-19.143v-69.024c8.428-3.714 14.357-12.144 14.357-21.904v-55.036c0-13.161-10.768-23.929-23.929-23.929z" stroke="#fff" stroke-width="5"/><circle cx="50" cy="9" r="9" transform="matrix(2.393 0 0 2.393 329.139 45.083)"/><path d="M463.139 95.333h-28.714c-13.161 0-23.929 10.768-23.929 23.929v55.036c0 9.76 5.929 18.193 14.357 21.904v69.024c0 10.529 8.614 19.143 19.143 19.143h9.571c10.529 0 19.143-8.614 19.143-19.143v-69.024c8.428-3.714 14.357-12.144 14.357-21.904v-55.036c0-13.161-10.768-23.929-23.929-23.929z"/></g><g><circle cx="50" cy="9" r="9" transform="matrix(2.393 0 0 2.393 486.722 40.032)" stroke="#fff" stroke-width="2.09"/><path d="M620.722 90.282h-28.714c-13.161 0-23.929 10.768-23.929 23.929v55.036c0 9.76 5.929 18.193 14.357 21.904v69.024c0 10.529 8.614 19.143 19.143 19.143h9.571c10.529 0 19.143-8.614 19.143-19.143v-69.024c8.428-3.714 14.357-12.144 14.357-21.904v-55.036c0-13.161-10.768-23.929-23.929-23.929z" stroke="#fff" stroke-width="5"/><circle cx="50" cy="9" r="9" transform="matrix(2.393 0 0 2.393 486.722 40.032)"/><path d="M620.722 90.282h-28.714c-13.161 0-23.929 10.768-23.929 23.929v55.036c0 9.76 5.929 18.193 14.357 21.904v69.024c0 10.529 8.614 19.143 19.143 19.143h9.571c10.529 0 19.143-8.614 19.143-19.143v-69.024c8.428-3.714 14.357-12.144 14.357-21.904v-55.036c0-13.161-10.768-23.929-23.929-23.929z"/></g><g><circle cx="50" cy="9" r="9" transform="matrix(2.393 0 0 2.393 429.144 58.215)" stroke="#fff" stroke-width="2.09"/><path d="M563.144 108.465h-28.714c-13.161 0-23.929 10.768-23.929 23.929v55.036c0 9.76 5.929 18.193 14.357 21.904v69.024c0 10.529 8.614 19.143 19.143 19.143h9.571c10.529 0 19.143-8.614 19.143-19.143v-69.024c8.428-3.714 14.357-12.144 14.357-21.904v-55.036c0-13.161-10.768-23.929-23.929-23.929z" stroke="#fff" stroke-width="5"/><circle cx="50" cy="9" r="9" transform="matrix(2.393 0 0 2.393 429.144 58.215)"/><path d="M563.144 108.465h-28.714c-13.161 0-23.929 10.768-23.929 23.929v55.036c0 9.76 5.929 18.193 14.357 21.904v69.024c0 10.529 8.614 19.143 19.143 19.143h9.571c10.529 0 19.143-8.614 19.143-19.143v-69.024c8.428-3.714 14.357-12.144 14.357-21.904v-55.036c0-13.161-10.768-23.929-23.929-23.929z"/></g><path d="M225.356 54.666c-42.12-42.12-110.726-42.142-152.846-.022-42.12 42.12-42.12 110.748 0 152.868 42.12 42.12 110.726 42.098 152.846-.022 42.12-42.12 42.12-110.704 0-152.823zm-21.611 7.469l-123.766 123.766c-27.639-34.623-25.392-85.005 6.695-117.092s82.45-34.315 117.07-6.673zm14.142 14.142c27.639 34.618 25.392 84.961-6.695 117.048s-82.45 34.354-117.07 6.718l123.766-123.766z" color="#000" fill="#48f" stroke="#fff" stroke-width="3" overflow="visible"/></svg>